<svg width="20" height="20" viewBox="0 0 20 20" fill="none" xmlns="http://www.w3.org/2000/svg">
<path d="M19.9999 10V11.75C20.0004 12.6038 19.7095 13.4321 19.1753 14.0982C18.6411 14.7642 17.8956 15.228 17.0621 15.4129C16.2286 15.5978 15.357 15.4928 14.5912 15.1151C13.8255 14.7375 13.2116 14.1099 12.8509 13.336C12.0329 14.356 10.8399 15 9.49994 15C6.99194 15 4.99994 12.742 4.99994 10C4.99994 7.258 6.99194 5 9.49994 5C10.6589 5 11.7079 5.482 12.5009 6.272L12.4999 5.75C12.5 5.55998 12.5722 5.37706 12.7019 5.23821C12.8316 5.09936 13.0092 5.01493 13.1988 5.00197C13.3884 4.98902 13.5758 5.04851 13.7232 5.16843C13.8706 5.28835 13.967 5.45975 13.9929 5.648L13.9999 5.75V11.75C13.9989 12.3341 14.225 12.8957 14.6305 13.3162C15.036 13.7366 15.5891 13.9828 16.1729 14.0028C16.7567 14.0228 17.3253 13.815 17.7587 13.4233C18.192 13.0317 18.456 12.4868 18.4949 11.904L18.4999 11.75V10C18.4994 8.18886 17.9204 6.42522 16.8474 4.96621C15.7743 3.50719 14.2632 2.42908 12.5345 1.88903C10.8057 1.34899 8.94964 1.37526 7.23686 1.964C5.52408 2.55275 4.04413 3.67319 3.01276 5.16199C1.98139 6.65078 1.45253 8.43009 1.50328 10.2405C1.55402 12.051 2.18172 13.7979 3.29486 15.2265C4.40801 16.6552 5.94839 17.691 7.69146 18.1829C9.43453 18.6748 11.2891 18.597 12.9849 17.961C13.1713 17.8911 13.3777 17.8981 13.5589 17.9804C13.74 18.0628 13.8811 18.2137 13.9509 18.4C14.0208 18.5863 14.0138 18.7928 13.9315 18.9739C13.8492 19.1551 13.6983 19.2961 13.5119 19.366C12.3889 19.7866 11.1992 20.0014 9.99994 20C4.47694 20 -6.10352e-05 15.523 -6.10352e-05 10C-6.10352e-05 4.477 4.47694 0 9.99994 0C15.4299 0 19.8479 4.327 19.9959 9.72L19.9999 10V11.75V10ZM9.49994 6.5C7.86494 6.5 6.49994 8.048 6.49994 10C6.49994 11.952 7.86494 13.5 9.49994 13.5C11.1339 13.5 12.4999 11.952 12.4999 10C12.4999 8.048 11.1339 6.5 9.49994 6.5Z" fill="#6F7794"/>
</svg>
