<svg width="40" height="40" viewBox="0 0 40 40" fill="none" xmlns="http://www.w3.org/2000/svg">
<rect x="0.5" y="0.5" width="39" height="39" rx="19.5" fill="#E1EDF9"/>
<path d="M19.5312 14.375H20.4688C20.5521 14.375 20.5938 14.4167 20.5938 14.5V25.5C20.5938 25.5833 20.5521 25.625 20.4688 25.625H19.5312C19.4479 25.625 19.4062 25.5833 19.4062 25.5V14.5C19.4062 14.4167 19.4479 14.375 19.5312 14.375Z" fill="#4A77BE"/>
<path d="M14.75 19.4062H25.25C25.3333 19.4062 25.375 19.4479 25.375 19.5312V20.4688C25.375 20.5521 25.3333 20.5938 25.25 20.5938H14.75C14.6667 20.5938 14.625 20.5521 14.625 20.4688V19.5312C14.625 19.4479 14.6667 19.4062 14.75 19.4062Z" fill="#4A77BE"/>
<rect x="0.5" y="0.5" width="39" height="39" rx="19.5" stroke="#4A77BE"/>
</svg>
