<svg width="24" height="32" viewBox="0 0 24 32" fill="none" xmlns="http://www.w3.org/2000/svg">
<path d="M14.586 0H4C2.93913 0 1.92172 0.421427 1.17157 1.17157C0.421427 1.92172 0 2.93913 0 4V28C0 29.0609 0.421427 30.0783 1.17157 30.8284C1.92172 31.5786 2.93913 32 4 32H20C21.0609 32 22.0783 31.5786 22.8284 30.8284C23.5786 30.0783 24 29.0609 24 28V9.414C23.9999 8.88361 23.7891 8.37499 23.414 8L16 0.586C15.625 0.210901 15.1164 0.000113275 14.586 0V0ZM15 7V3L21 9H17C16.4696 9 15.9609 8.78929 15.5858 8.41421C15.2107 8.03914 15 7.53043 15 7ZM5 18C4.73478 18 4.48043 17.8946 4.29289 17.7071C4.10536 17.5196 4 17.2652 4 17C4 16.7348 4.10536 16.4804 4.29289 16.2929C4.48043 16.1054 4.73478 16 5 16H19C19.2652 16 19.5196 16.1054 19.7071 16.2929C19.8946 16.4804 20 16.7348 20 17C20 17.2652 19.8946 17.5196 19.7071 17.7071C19.5196 17.8946 19.2652 18 19 18H5ZM4 21C4 20.7348 4.10536 20.4804 4.29289 20.2929C4.48043 20.1054 4.73478 20 5 20H19C19.2652 20 19.5196 20.1054 19.7071 20.2929C19.8946 20.4804 20 20.7348 20 21C20 21.2652 19.8946 21.5196 19.7071 21.7071C19.5196 21.8946 19.2652 22 19 22H5C4.73478 22 4.48043 21.8946 4.29289 21.7071C4.10536 21.5196 4 21.2652 4 21ZM5 26C4.73478 26 4.48043 25.8946 4.29289 25.7071C4.10536 25.5196 4 25.2652 4 25C4 24.7348 4.10536 24.4804 4.29289 24.2929C4.48043 24.1054 4.73478 24 5 24H13C13.2652 24 13.5196 24.1054 13.7071 24.2929C13.8946 24.4804 14 24.7348 14 25C14 25.2652 13.8946 25.5196 13.7071 25.7071C13.5196 25.8946 13.2652 26 13 26H5Z" fill="#C4CAFF"/>
</svg>
