<svg width="21" height="4" viewBox="0 0 21 4" fill="none" xmlns="http://www.w3.org/2000/svg">
<path opacity="0.4" d="M2.00083 3.99998C0.896865 3.99998 0 3.10311 0 2.00082C0 0.898534 0.896865 0 2.00083 0C3.10479 0 4.00165 0.898534 4.00165 2.00082C4.00165 3.10311 3.10479 3.99998 2.00083 3.99998Z" fill="#041739"/>
<path d="M10.0028 3.99998C8.89882 3.99998 8.00195 3.10311 8.00195 2.00082C8.00195 0.898534 8.89882 0 10.0028 0C11.1067 0 12.0036 0.898534 12.0036 2.00082C12.0036 3.10311 11.1067 3.99998 10.0028 3.99998Z" fill="#041739"/>
<path opacity="0.4" d="M18.0038 3.99998C16.8998 3.99998 16.0029 3.10311 16.0029 2.00082C16.0029 0.898534 16.8998 0 18.0038 0C19.1077 0 20.0046 0.898534 20.0046 2.00082C20.0046 3.10311 19.1077 3.99998 18.0038 3.99998Z" fill="#041739"/>
</svg>
