<svg width="30" height="30" viewBox="0 0 30 30" fill="none" xmlns="http://www.w3.org/2000/svg">
<circle cx="15" cy="15" r="14" stroke="#4B5563"/>
<path d="M12.1875 10C12.2704 10 12.3499 10.0329 12.4085 10.0915C12.4671 10.1501 12.5 10.2296 12.5 10.3125V10.625H17.5V10.3125C17.5 10.2296 17.5329 10.1501 17.5915 10.0915C17.6501 10.0329 17.7296 10 17.8125 10C17.8954 10 17.9749 10.0329 18.0335 10.0915C18.0921 10.1501 18.125 10.2296 18.125 10.3125V10.625H18.75C19.0815 10.625 19.3995 10.7567 19.6339 10.9911C19.8683 11.2255 20 11.5435 20 11.875V18.75C20 19.0815 19.8683 19.3995 19.6339 19.6339C19.3995 19.8683 19.0815 20 18.75 20H11.25C10.9185 20 10.6005 19.8683 10.3661 19.6339C10.1317 19.3995 10 19.0815 10 18.75V11.875C10 11.5435 10.1317 11.2255 10.3661 10.9911C10.6005 10.7567 10.9185 10.625 11.25 10.625H11.875V10.3125C11.875 10.2296 11.9079 10.1501 11.9665 10.0915C12.0251 10.0329 12.1046 10 12.1875 10V10ZM11.25 11.25C11.0842 11.25 10.9253 11.3158 10.8081 11.4331C10.6908 11.5503 10.625 11.7092 10.625 11.875V12.5H19.375V11.875C19.375 11.7092 19.3092 11.5503 19.1919 11.4331C19.0747 11.3158 18.9158 11.25 18.75 11.25H11.25ZM19.375 13.125H10.625V18.75C10.625 18.9158 10.6908 19.0747 10.8081 19.1919C10.9253 19.3092 11.0842 19.375 11.25 19.375H18.75C18.9158 19.375 19.0747 19.3092 19.1919 19.1919C19.3092 19.0747 19.375 18.9158 19.375 18.75V13.125Z" fill="#4B5563"/>
</svg>
