<?xml version="1.0" encoding="utf-8"?>
<!-- Generator: Adobe Illustrator 23.0.0, SVG Export Plug-In . SVG Version: 6.00 Build 0)  -->
<svg version="1.1" id="Layer_1" xmlns="http://www.w3.org/2000/svg" xmlns:xlink="http://www.w3.org/1999/xlink" x="0px" y="0px"
	 viewBox="0 0 24 24" style="enable-background:new 0 0 24 24;" xml:space="preserve">
<style type="text/css">
	.st0{opacity:0.4;enable-background:new    ;}
	.st1{fill:#041739;}
</style>
<g class="st0">
	<path class="st1" d="M11,18.3H4c-0.4,0-0.8-0.3-0.8-0.8s0.3-0.8,0.8-0.8h7c0.4,0,0.8,0.3,0.8,0.8S11.4,18.3,11,18.3z"/>
</g>
<g>
	<path class="st1" d="M17.5,20.8c-1.8,0-3.3-1.5-3.3-3.3s1.5-3.3,3.3-3.3s3.3,1.5,3.3,3.3S19.3,20.8,17.5,20.8z M17.5,15.8
		c-1,0-1.8,0.8-1.8,1.8s0.8,1.8,1.8,1.8s1.8-0.8,1.8-1.8S18.5,15.8,17.5,15.8z"/>
</g>
<g class="st0">
	<path class="st1" d="M20,7.3h-7c-0.4,0-0.8-0.3-0.8-0.8s0.3-0.8,0.8-0.8h7c0.4,0,0.8,0.3,0.8,0.8S20.4,7.3,20,7.3z"/>
</g>
<g>
	<path class="st1" d="M6.5,9.8c-1.8,0-3.3-1.5-3.3-3.3s1.5-3.2,3.3-3.2s3.3,1.5,3.3,3.2S8.3,9.8,6.5,9.8z M6.5,4.8
		c-1,0-1.8,0.8-1.8,1.8s0.8,1.8,1.8,1.8s1.8-0.8,1.8-1.8S7.5,4.8,6.5,4.8z"/>
</g>
</svg>
