<?xml version="1.0" encoding="utf-8"?>
<!-- Generator: Adobe Illustrator 23.0.0, SVG Export Plug-In . SVG Version: 6.00 Build 0)  -->
<svg version="1.1" id="Layer_1" xmlns="http://www.w3.org/2000/svg" xmlns:xlink="http://www.w3.org/1999/xlink" x="0px" y="0px"
	 viewBox="0 0 48 48" style="enable-background:new 0 0 48 48;" xml:space="preserve">
<style type="text/css">
	.st0{opacity:0.4;enable-background:new    ;}
	.st1{fill:url(#SVGID_1_);}
	.st2{fill:url(#SVGID_2_);}
	.st3{fill:url(#SVGID_3_);}
	.st4{fill:url(#SVGID_4_);}
</style>
<g class="st0">
	
		<linearGradient id="SVGID_1_" gradientUnits="userSpaceOnUse" x1="23.7705" y1="15.8311" x2="23.7705" y2="14.8311" gradientTransform="matrix(1 0 0 -1 0 49.2756)">
		<stop  offset="0" style="stop-color:#0A3585"/>
		<stop  offset="1" style="stop-color:#959CE2"/>
	</linearGradient>
	<path class="st1" d="M31.1,34.7H16.4c-0.7,0-1.3-0.6-1.3-1.3s0.6-1.3,1.3-1.3h14.7c0.7,0,1.3,0.6,1.3,1.3S31.8,34.7,31.1,34.7z"/>
</g>
<g class="st0">
	
		<linearGradient id="SVGID_2_" gradientUnits="userSpaceOnUse" x1="23.7705" y1="24.3584" x2="23.7705" y2="23.3584" gradientTransform="matrix(1 0 0 -1 0 49.2756)">
		<stop  offset="0" style="stop-color:#0A3585"/>
		<stop  offset="1" style="stop-color:#959CE2"/>
	</linearGradient>
	<path class="st2" d="M31.1,26.2H16.4c-0.7,0-1.3-0.6-1.3-1.3s0.6-1.3,1.3-1.3h14.7c0.7,0,1.3,0.6,1.3,1.3S31.8,26.2,31.1,26.2z"/>
</g>
<g class="st0">
	
		<linearGradient id="SVGID_3_" gradientUnits="userSpaceOnUse" x1="19.2229" y1="32.8662" x2="19.2229" y2="31.8662" gradientTransform="matrix(1 0 0 -1 0 49.2756)">
		<stop  offset="0" style="stop-color:#0A3585"/>
		<stop  offset="1" style="stop-color:#959CE2"/>
	</linearGradient>
	<path class="st3" d="M22,17.7h-5.6c-0.7,0-1.3-0.6-1.3-1.3s0.6-1.3,1.3-1.3H22c0.7,0,1.3,0.6,1.3,1.3S22.7,17.7,22,17.7z"/>
</g>
<g>
	
		<linearGradient id="SVGID_4_" gradientUnits="userSpaceOnUse" x1="23.7227" y1="43.2754" x2="23.7227" y2="5.7754" gradientTransform="matrix(1 0 0 -1 0 49.2756)">
		<stop  offset="0" style="stop-color:#0A3585"/>
		<stop  offset="1" style="stop-color:#959CE2"/>
	</linearGradient>
	<path class="st4" d="M15.9,44.8c-6.3,0-10.4-4.2-10.4-10.6V15.4C5.5,9,9.6,4.8,15.8,4.8l15.7,0c0,0,0,0,0,0
		c6.3,0,10.4,4.2,10.4,10.6v18.7c0,6.4-4.1,10.6-10.3,10.6L15.9,44.8z M31.5,7.3l-15.7,0C11,7.3,8,10.4,8,15.4v18.7
		c0,5,3,8.1,7.9,8.1l15.7,0c4.8,0,7.9-3.1,7.9-8.1V15.4C39.4,10.4,36.4,7.3,31.5,7.3L31.5,7.3z"/>
</g>
</svg>
