<?xml version="1.0" encoding="utf-8"?>
<!-- Generator: Adobe Illustrator 23.0.0, SVG Export Plug-In . SVG Version: 6.00 Build 0)  -->
<svg version="1.1" id="Layer_1" xmlns="http://www.w3.org/2000/svg" xmlns:xlink="http://www.w3.org/1999/xlink" x="0px" y="0px"
	 viewBox="0 0 49 48" style="enable-background:new 0 0 49 48;" xml:space="preserve">
<style type="text/css">
	.st0{fill:url(#SVGID_1_);}
	.st1{fill:url(#SVGID_2_);}
	.st2{opacity:0.4;enable-background:new    ;}
	.st3{fill:url(#SVGID_3_);}
	.st4{fill:url(#SVGID_4_);}
</style>
<g>
	
		<linearGradient id="SVGID_1_" gradientUnits="userSpaceOnUse" x1="24.5508" y1="43.7515" x2="24.5508" y2="7.0459" gradientTransform="matrix(1 0 0 -1 0 49.2756)">
		<stop  offset="0" style="stop-color:#0A3585"/>
		<stop  offset="1" style="stop-color:#959CE2"/>
	</linearGradient>
	<path class="st0" d="M32.6,43.5h-16c-5,0-8.9-4-8.9-9.1V13c0-4.7,4.1-8.7,8.9-8.7H30c0.3,0,0.7,0.1,0.9,0.4L41,15.2
		c0.2,0.2,0.3,0.5,0.3,0.9v18.3C41.4,39.3,37.4,43.5,32.6,43.5z M16.7,6.8c-3.5,0-6.4,2.8-6.4,6.2v21.4c0,3.7,2.8,6.6,6.4,6.6h16
		c3.3,0,6.2-3.1,6.2-6.6V16.6l-9.4-9.8H16.7z"/>
</g>
<g>
	
		<linearGradient id="SVGID_2_" gradientUnits="userSpaceOnUse" x1="34.7664" y1="43.7749" x2="34.7664" y2="32.8022" gradientTransform="matrix(1 0 0 -1 0 49.2756)">
		<stop  offset="0" style="stop-color:#0A3585"/>
		<stop  offset="1" style="stop-color:#959CE2"/>
	</linearGradient>
	<path class="st1" d="M38,17.7c-0.8,0-1.9,0-3.5,0c-3.5,0-6.4-2.9-6.4-6.4V5.5c0-0.7,0.6-1.3,1.3-1.3s1.3,0.6,1.3,1.3v5.8
		c0,2.1,1.7,3.9,3.9,3.9c3.7,0,5.3,0,5.4,0c0.7,0,1.3,0.5,1.3,1.2c0,0.7-0.5,1.3-1.2,1.3C40.1,17.7,40,17.7,38,17.7z"/>
</g>
<g class="st2">
	
		<linearGradient id="SVGID_3_" gradientUnits="userSpaceOnUse" x1="23.6704" y1="18.1602" x2="28.988" y2="18.1602" gradientTransform="matrix(1 0 0 -1 0 49.2756)">
		<stop  offset="0" style="stop-color:#0A3585"/>
		<stop  offset="1" style="stop-color:#959CE2"/>
	</linearGradient>
	<path class="st3" d="M29.1,32.4H18.3c-0.7,0-1.3-0.6-1.3-1.2s0.6-1.3,1.3-1.3h10.8c0.7,0,1.3,0.6,1.3,1.3S29.8,32.4,29.1,32.4z"/>
</g>
<g class="st2">
	
		<linearGradient id="SVGID_4_" gradientUnits="userSpaceOnUse" x1="21.6284" y1="28.0645" x2="25.3132" y2="28.0645" gradientTransform="matrix(1 0 0 -1 0 49.2756)">
		<stop  offset="0" style="stop-color:#0A3585"/>
		<stop  offset="1" style="stop-color:#959CE2"/>
	</linearGradient>
	<path class="st4" d="M25,22.5h-6.7c-0.7,0-1.3-0.6-1.3-1.3s0.6-1.3,1.3-1.3H25c0.7,0,1.3,0.6,1.3,1.3S25.7,22.5,25,22.5z"/>
</g>
</svg>
