<svg width="30" height="30" viewBox="0 0 30 30" fill="none" xmlns="http://www.w3.org/2000/svg">
<circle cx="15" cy="15" r="14" stroke="#07245B"/>
<path d="M15.293 15.4997H8.5C8.36739 15.4997 8.24021 15.447 8.14645 15.3532C8.05268 15.2594 8 15.1323 8 14.9997C8 14.867 8.05268 14.7399 8.14645 14.6461C8.24021 14.5523 8.36739 14.4997 8.5 14.4997H15.293L13.146 12.3537C13.0995 12.3072 13.0626 12.252 13.0375 12.1912C13.0123 12.1305 12.9994 12.0654 12.9994 11.9997C12.9994 11.9339 13.0123 11.8688 13.0375 11.8081C13.0626 11.7473 13.0995 11.6921 13.146 11.6457C13.1925 11.5992 13.2477 11.5623 13.3084 11.5371C13.3692 11.512 13.4343 11.499 13.5 11.499C13.5657 11.499 13.6308 11.512 13.6916 11.5371C13.7523 11.5623 13.8075 11.5992 13.854 11.6457L16.854 14.6457C16.9006 14.6921 16.9375 14.7473 16.9627 14.808C16.9879 14.8688 17.0009 14.9339 17.0009 14.9997C17.0009 15.0654 16.9879 15.1305 16.9627 15.1913C16.9375 15.252 16.9006 15.3072 16.854 15.3537L13.854 18.3537C13.7601 18.4475 13.6328 18.5003 13.5 18.5003C13.3672 18.5003 13.2399 18.4475 13.146 18.3537C13.0521 18.2598 12.9994 18.1324 12.9994 17.9997C12.9994 17.8669 13.0521 17.7395 13.146 17.6457L15.293 15.4997ZM22 14.9997C22 14.4692 21.7893 13.9605 21.4142 13.5854C21.0391 13.2104 20.5304 12.9997 20 12.9997C19.4696 12.9997 18.9609 13.2104 18.5858 13.5854C18.2107 13.9605 18 14.4692 18 14.9997C18 15.5301 18.2107 16.0388 18.5858 16.4139C18.9609 16.7889 19.4696 16.9997 20 16.9997C20.5304 16.9997 21.0391 16.7889 21.4142 16.4139C21.7893 16.0388 22 15.5301 22 14.9997Z" fill="#07245B"/>
</svg>
