<?xml version="1.0" encoding="utf-8"?>
<!-- Generator: Adobe Illustrator 23.0.0, SVG Export Plug-In . SVG Version: 6.00 Build 0)  -->
<svg version="1.1" id="Layer_1" xmlns="http://www.w3.org/2000/svg" xmlns:xlink="http://www.w3.org/1999/xlink" x="0px" y="0px"
	 viewBox="0 0 48 48" style="enable-background:new 0 0 48 48;" xml:space="preserve">
<style type="text/css">
	.st0{opacity:0.4;enable-background:new    ;}
	.st1{fill:url(#SVGID_1_);}
	.st2{fill:url(#SVGID_2_);}
	.st3{fill:url(#SVGID_3_);}
	.st4{fill:url(#SVGID_4_);}
</style>
<g class="st0">
	
		<linearGradient id="SVGID_1_" gradientUnits="userSpaceOnUse" x1="14.8459" y1="9.4973" x2="14.8459" y2="6.7146" gradientTransform="matrix(1 0 0 -1 0 49.2756)">
		<stop  offset="0" style="stop-color:#0A3585"/>
		<stop  offset="1" style="stop-color:#959CE2"/>
	</linearGradient>
	<path class="st1" d="M14.8,43.7c-1.4,0-2.5-1.1-2.5-2.5c0-1.4,1.1-2.5,2.5-2.5c1.4,0,2.5,1.1,2.5,2.5
		C17.4,42.6,16.2,43.7,14.8,43.7z M14.8,40.6c-0.3,0-0.5,0.2-0.5,0.5c0,0.3,0.2,0.5,0.5,0.5c0.3,0,0.5-0.2,0.5-0.5
		C15.4,40.9,15.1,40.6,14.8,40.6z"/>
</g>
<g class="st0">
	
		<linearGradient id="SVGID_2_" gradientUnits="userSpaceOnUse" x1="37.3496" y1="9.4973" x2="37.3496" y2="6.7146" gradientTransform="matrix(1 0 0 -1 0 49.2756)">
		<stop  offset="0" style="stop-color:#0A3585"/>
		<stop  offset="1" style="stop-color:#959CE2"/>
	</linearGradient>
	<path class="st2" d="M37.3,43.7c-1.4,0-2.5-1.1-2.5-2.5c0-1.4,1.1-2.5,2.5-2.5s2.5,1.1,2.5,2.5C39.9,42.6,38.7,43.7,37.3,43.7z
		 M37.3,40.6c-0.3,0-0.5,0.2-0.5,0.5c0,0.3,0.2,0.5,0.5,0.5s0.5-0.2,0.5-0.5C37.9,40.9,37.6,40.6,37.3,40.6z"/>
</g>
<g>
	
		<linearGradient id="SVGID_3_" gradientUnits="userSpaceOnUse" x1="23.9995" y1="42.7754" x2="23.9995" y2="15.8037" gradientTransform="matrix(1 0 0 -1 0 49.2756)">
		<stop  offset="0" style="stop-color:#0A3585"/>
		<stop  offset="1" style="stop-color:#959CE2"/>
	</linearGradient>
	<path class="st3" d="M37,34.7H15.2c-2.5,0-4.6-1.9-4.8-4.5l-1.8-22L5.3,7.7C4.6,7.6,4.2,7,4.3,6.3c0.1-0.7,0.8-1.1,1.4-1L9.9,6
		c0.6,0.1,1,0.6,1,1.1l0.5,5.8h28.4c1.1,0,2.2,0.5,3,1.4s1.1,2,0.9,3.1l-1.9,13.1C41.5,32.9,39.4,34.7,37,34.7z M11.6,15.4l1.2,14.6
		c0.1,1.2,1.1,2.2,2.3,2.2H37c1.2,0,2.2-0.9,2.3-2l1.9-13.1c0.1-0.4-0.1-0.8-0.3-1.1s-0.7-0.5-1.1-0.5H11.6z"/>
</g>
<g class="st0">
	
		<linearGradient id="SVGID_4_" gradientUnits="userSpaceOnUse" x1="31.0239" y1="27.6856" x2="31.0239" y2="26.6856" gradientTransform="matrix(1 0 0 -1 0 49.2756)">
		<stop  offset="0" style="stop-color:#0A3585"/>
		<stop  offset="1" style="stop-color:#959CE2"/>
	</linearGradient>
	<path class="st4" d="M33.8,22.8h-5.5c-0.7,0-1.3-0.6-1.3-1.3s0.6-1.3,1.3-1.3h5.5c0.7,0,1.3,0.6,1.3,1.3S34.5,22.8,33.8,22.8z"/>
</g>
</svg>
