<?xml version="1.0" encoding="utf-8"?>
<!-- Generator: Adobe Illustrator 23.0.0, SVG Export Plug-In . SVG Version: 6.00 Build 0)  -->
<svg version="1.1" id="Layer_1" xmlns="http://www.w3.org/2000/svg" xmlns:xlink="http://www.w3.org/1999/xlink" x="0px" y="0px"
	 viewBox="0 0 24 24" style="enable-background:new 0 0 24 24;" xml:space="preserve">
<style type="text/css">
	.st0{opacity:0.4;enable-background:new    ;}
	.st1{fill:#041739;}
</style>
<g class="st0">
	<path class="st1" d="M20.8,9.5c-0.4,0-0.8-0.3-0.8-0.8v-2c0-1.4-1.2-2.6-2.6-2.6h-1.6c-0.4,0-0.8-0.3-0.8-0.7s0.3-0.8,0.8-0.8h1.6
		c2.2,0,4.1,1.8,4.1,4.1v2C21.5,9.2,21.2,9.5,20.8,9.5z"/>
</g>
<g class="st0">
	<path class="st1" d="M3.4,9.5C3,9.5,2.6,9.2,2.6,8.8v-2c0-2.2,1.8-4.1,4.1-4.1l1.7,0h0c0.4,0,0.7,0.3,0.8,0.7S8.8,4.3,8.4,4.3
		l-1.7,0c-1.4,0-2.6,1.2-2.6,2.6v2C4.1,9.2,3.8,9.5,3.4,9.5z"/>
</g>
<path class="st1" d="M22.6,12.3H1.5c-0.4,0-0.8,0.3-0.8,0.8c0,0.4,0.3,0.7,0.8,0.7h1.1v3.8c0,2.2,1.8,4.1,4.1,4.1l1.7,0h0
	c0.4,0,0.7-0.3,0.8-0.8s-0.3-0.8-0.7-0.8l-1.7,0c-1.4,0-2.6-1.2-2.6-2.6v-3.8H20v3.8c0,1.4-1.2,2.6-2.6,2.6h-1.6
	c-0.4,0-0.8,0.3-0.8,0.8s0.3,0.8,0.8,0.8h1.6c2.2,0,4.1-1.8,4.1-4.1v-3.8h1.1c0.4,0,0.8-0.3,0.8-0.7C23.4,12.6,23,12.3,22.6,12.3z"
	/>
</svg>
