<svg width="30" height="30" viewBox="0 0 30 30" fill="none" xmlns="http://www.w3.org/2000/svg">
<circle cx="15" cy="15" r="14" stroke="#07245B"/>
<path d="M14.9996 17.3996C15.6361 17.3996 16.2466 17.1468 16.6967 16.6967C17.1468 16.2466 17.3996 15.6361 17.3996 14.9996C17.3996 14.3631 17.1468 13.7526 16.6967 13.3026C16.2466 12.8525 15.6361 12.5996 14.9996 12.5996C14.3631 12.5996 13.7526 12.8525 13.3026 13.3026C12.8525 13.7526 12.5996 14.3631 12.5996 14.9996C12.5996 15.6361 12.8525 16.2466 13.3026 16.6967C13.7526 17.1468 14.3631 17.3996 14.9996 17.3996ZM15.3996 8.99961C15.3996 8.89352 15.3575 8.79178 15.2825 8.71677C15.2074 8.64175 15.1057 8.59961 14.9996 8.59961C14.8935 8.59961 14.7918 8.64175 14.7168 8.71677C14.6418 8.79178 14.5996 8.89352 14.5996 8.99961V10.2156C13.4686 10.3102 12.4076 10.8025 11.605 11.605C10.8025 12.4076 10.3102 13.4686 10.2156 14.5996H8.99961C8.89352 14.5996 8.79178 14.6418 8.71677 14.7168C8.64175 14.7918 8.59961 14.8935 8.59961 14.9996C8.59961 15.1057 8.64175 15.2074 8.71677 15.2825C8.79178 15.3575 8.89352 15.3996 8.99961 15.3996H10.2156C10.3102 16.5307 10.8025 17.5916 11.605 18.3942C12.4076 19.1968 13.4686 19.689 14.5996 19.7836V20.9996C14.5996 21.1057 14.6418 21.2074 14.7168 21.2825C14.7918 21.3575 14.8935 21.3996 14.9996 21.3996C15.1057 21.3996 15.2074 21.3575 15.2825 21.2825C15.3575 21.2074 15.3996 21.1057 15.3996 20.9996V19.7836C16.5306 19.6889 17.5915 19.1965 18.394 18.394C19.1965 17.5915 19.6889 16.5306 19.7836 15.3996H20.9996C21.1057 15.3996 21.2074 15.3575 21.2825 15.2825C21.3575 15.2074 21.3996 15.1057 21.3996 14.9996C21.3996 14.8935 21.3575 14.7918 21.2825 14.7168C21.2074 14.6418 21.1057 14.5996 20.9996 14.5996H19.7836C19.689 13.4686 19.1968 12.4076 18.3942 11.605C17.5916 10.8025 16.5307 10.3102 15.3996 10.2156V8.99961ZM14.9996 18.9996C13.9387 18.9996 12.9213 18.5782 12.1712 17.828C11.421 17.0779 10.9996 16.0605 10.9996 14.9996C10.9996 13.9387 11.421 12.9213 12.1712 12.1712C12.9213 11.421 13.9387 10.9996 14.9996 10.9996C16.0605 10.9996 17.0779 11.421 17.828 12.1712C18.5782 12.9213 18.9996 13.9387 18.9996 14.9996C18.9996 16.0605 18.5782 17.0779 17.828 17.828C17.0779 18.5782 16.0605 18.9996 14.9996 18.9996Z" fill="#07245B"/>
</svg>
