<svg width="24" height="32" viewBox="0 0 24 32" fill="none" xmlns="http://www.w3.org/2000/svg">
<path fill-rule="evenodd" clip-rule="evenodd" d="M4 0H14.586C15.1164 0.000113275 15.625 0.210901 16 0.586L23.414 8C23.7891 8.37499 23.9999 8.88361 24 9.414V28C24 29.0609 23.5786 30.0783 22.8284 30.8284C22.0783 31.5786 21.0609 32 20 32H4C2.93913 32 1.92172 31.5786 1.17157 30.8284C0.421427 30.0783 0 29.0609 0 28V4C0 2.93913 0.421427 1.92172 1.17157 1.17157C1.92172 0.421427 2.93913 0 4 0V0ZM15 3V7C15 7.53043 15.2107 8.03914 15.5858 8.41421C15.9609 8.78929 16.4696 9 17 9H21L15 3ZM4.33 27.336C4.51 27.696 4.79 28.022 5.206 28.174C5.62 28.324 6.03 28.254 6.366 28.114C7.002 27.854 7.636 27.242 8.218 26.542C8.884 25.74 9.584 24.688 10.26 23.522C11.5651 23.1352 12.9015 22.8635 14.254 22.71C14.854 23.476 15.474 24.136 16.074 24.61C16.634 25.05 17.28 25.416 17.942 25.444C18.3026 25.4619 18.6596 25.3652 18.962 25.168C19.272 24.966 19.502 24.674 19.67 24.336C19.85 23.974 19.96 23.596 19.946 23.21C19.9333 22.8294 19.7924 22.4643 19.546 22.174C19.094 21.634 18.354 21.374 17.626 21.244C16.7429 21.1072 15.8469 21.0737 14.956 21.144C14.2037 20.0805 13.5478 18.952 12.996 17.772C13.496 16.452 13.87 15.204 14.036 14.184C14.108 13.748 14.146 13.332 14.132 12.956C14.1295 12.5828 14.0427 12.2149 13.878 11.88C13.7831 11.6952 13.6483 11.5337 13.4833 11.4075C13.3183 11.2812 13.1272 11.1933 12.924 11.15C12.52 11.064 12.104 11.15 11.722 11.304C10.968 11.604 10.57 12.244 10.42 12.95C10.274 13.63 10.34 14.422 10.512 15.222C10.688 16.034 10.988 16.918 11.372 17.812C10.7578 19.3396 10.0484 20.8272 9.248 22.266C8.21728 22.5903 7.22376 23.0227 6.284 23.556C5.544 23.996 4.886 24.516 4.49 25.13C4.07 25.782 3.94 26.558 4.33 27.336Z" fill="#C4CAFF"/>
</svg>
